<svg width="518.8" height="68.001" viewBox="0 0 518.8 68.001" xmlns="http://www.w3.org/2000/svg"><g id="svgGroup" stroke-linecap="round" fill-rule="evenodd" font-size="9pt" stroke="#000" stroke-width="0.25mm" fill="#000000" style="stroke:#000;stroke-width:0.25mm;fill:#000000"><path d="M 303.1 35.7 L 303.1 66.5 L 283.1 66.5 L 283.1 1.5 L 303.1 0 L 303.1 18.3 Q 309.5 15 317.3 15 Q 325.1 15 329.1 18.05 Q 333.1 21.1 333.1 26.5 L 333.1 66.5 L 313.1 66.5 L 313.1 31.5 L 310 31.5 Q 306.4 31.5 304.75 32.25 Q 303.1 33 303.1 35.7 Z M 516.2 18.1 L 513.9 31.7 Q 506.1 29.5 498.3 29.5 Q 495.9 29.5 491.5 29.9 L 491.5 33.1 Q 507.7 33.1 513.5 37.9 Q 516.4 40.3 517.6 43.15 Q 518.8 46 518.8 50.05 Q 518.8 54.1 517.85 57.3 Q 516.9 60.5 514.95 62.4 Q 513 64.3 510.9 65.5 Q 508.8 66.7 505.4 67.2 Q 500.1 68 493.1 68 Q 480.7 68 470.7 65.1 L 473.2 50.9 Q 481.6 53.5 491.4 53.5 Q 495.9 53.5 499.6 53.1 L 499.6 49.9 Q 483.6 49.9 477.55 45.7 Q 471.5 41.5 471.5 31.75 Q 471.5 22 477.95 18.5 Q 484.4 15 495.6 15 Q 506.8 15 516.2 18.1 Z M 274.6 48.6 L 276.1 65.4 Q 269.8 68 260.3 68 Q 250.8 68 245.05 66 Q 239.3 64 236 59.7 Q 232.7 55.4 231.4 49.6 Q 230.1 43.8 230.1 35.3 Q 230.1 26.8 231.4 20.95 Q 232.7 15.1 236 10.8 Q 242.4 2.5 259.5 2.5 Q 263.3 2.5 268.45 3.25 Q 273.6 4 276.1 5.1 L 273.1 20.4 Q 266.6 19 261.2 19 Q 255.8 19 253.7 20 Q 251.6 21 251.6 24 L 251.6 50.2 Q 255.5 51 259.5 51 Q 268 51 274.6 48.6 Z M 106.7 31.5 L 106.7 66.5 L 96.7 66.5 L 91 60.8 Q 88.1 64.2 83.1 66.1 Q 78.1 68 73.65 68 Q 69.2 68 66.5 67.3 Q 63.8 66.6 61.2 64.9 Q 55.5 61.3 55.5 51.5 Q 55.5 33.5 82.7 33.5 L 86.7 33.5 L 86.7 29.9 Q 83.5 29.7 81.4 29.7 Q 70.1 29.7 62 32.4 L 59.6 18.1 Q 69.6 15 82.7 15 Q 106.7 15 106.7 31.5 Z M 390.3 31.5 L 390.3 66.5 L 380.3 66.5 L 374.6 60.8 Q 371.7 64.2 366.7 66.1 Q 361.7 68 357.25 68 Q 352.8 68 350.1 67.3 Q 347.4 66.6 344.8 64.9 Q 339.1 61.3 339.1 51.5 Q 339.1 33.5 366.3 33.5 L 370.3 33.5 L 370.3 29.9 Q 367.1 29.7 365 29.7 Q 353.7 29.7 345.6 32.4 L 343.2 18.1 Q 353.2 15 366.3 15 Q 390.3 15 390.3 31.5 Z M 181.1 49.5 L 181.1 53 Q 184.1 53.3 187.1 53.3 Q 196.4 53.3 205.9 50.3 L 208.3 65 Q 197.1 68 186.1 68 Q 172.1 68 165.85 61.45 Q 159.6 54.9 159.6 41.5 Q 159.6 28.1 165.85 21.55 Q 172.1 15 186.05 15 Q 200 15 205.3 18.8 Q 210.6 22.6 210.6 33 Q 210.6 41.8 204.25 45.65 Q 197.9 49.5 181.1 49.5 Z M 33 51.4 L 20 51.4 L 20 66.5 L 0 66.5 L 0 4 L 31.5 4 Q 53 4 53 27.1 Q 53 39.8 47.4 45.9 Q 45.3 48.2 41.6 49.8 Q 37.9 51.4 33 51.4 Z M 152.4 51.5 L 153.6 65.9 Q 148.4 68 140.2 68 Q 126.2 68 119.95 61.45 Q 113.7 54.9 113.7 41.5 Q 113.7 28.1 119.95 21.55 Q 126.2 15 140.2 15 Q 148.9 15 153.6 17.1 L 151.2 30.7 Q 145.9 29.6 142.8 29.6 Q 135.2 29.6 135.2 34.9 L 135.2 52.8 Q 138.1 53.4 142.65 53.4 Q 147.2 53.4 152.4 51.5 Z M 438.8 29.4 L 433.8 29.4 L 433.8 16.5 L 438.8 16.5 L 438.8 8.5 L 458.8 3.5 L 458.8 16.5 L 465.7 16.5 L 465.7 29.4 L 458.8 29.4 L 458.8 52.2 Q 461.4 52.7 464.7 52.9 L 463.8 67.6 Q 450.1 67.6 446 66.1 Q 440.9 64.3 439.6 61.3 Q 438.8 59.5 438.8 57.1 L 438.8 29.4 Z M 399.3 66.5 L 399.3 16.5 L 409.3 16.5 L 414.8 22.1 Q 420.7 16.7 429.6 15 L 430.8 33.9 Q 428.4 34 424.55 35.1 Q 420.7 36.2 419.3 37.9 L 419.3 66.5 L 399.3 66.5 Z M 24.6 20 L 20 20 L 20 35.4 L 24.6 35.4 Q 28.2 35.4 29.85 34.65 Q 31.5 33.9 31.5 31.2 L 31.5 24.2 Q 31.5 21.5 29.85 20.75 Q 28.2 20 24.6 20 Z M 75.7 49.3 L 75.7 53.4 L 79.8 53.4 Q 84.2 53.4 85.45 52.4 Q 86.7 51.4 86.7 49.8 L 86.7 45.1 L 82.6 45.1 Q 79 45.1 77.35 45.85 Q 75.7 46.6 75.7 49.3 Z M 359.3 49.3 L 359.3 53.4 L 363.4 53.4 Q 367.8 53.4 369.05 52.4 Q 370.3 51.4 370.3 49.8 L 370.3 45.1 L 366.2 45.1 Q 362.6 45.1 360.95 45.85 Q 359.3 46.6 359.3 49.3 Z M 181.1 33.8 L 181.1 37.9 L 185.2 37.9 Q 188.8 37.9 190.45 37.15 Q 192.1 36.4 192.1 33.7 L 192.1 29.6 L 188 29.6 Q 184.4 29.6 182.75 30.35 Q 181.1 31.1 181.1 33.8 Z" vector-effect="non-scaling-stroke"/></g></svg>
